<?xml version="1.0" encoding="UTF-8"?>
<svg id="Layer_1" data-name="Layer 1" xmlns="http://www.w3.org/2000/svg" version="1.1" viewBox="0 0 200 153">
  <defs>
    <style>
      .cls-1 {
        fill: #dddfec;
      }

      .cls-1, .cls-2, .cls-3, .cls-4, .cls-5, .cls-6, .cls-7 {
        stroke-width: 0px;
      }

      .cls-2 {
        fill: #bac0d8;
      }

      .cls-3 {
        fill: #e26c48;
      }

      .cls-4 {
        fill: #42ccb2;
      }

      .cls-5 {
        fill: #564ebd;
      }

      .cls-6 {
        fill: #3c3082;
      }

      .cls-7 {
        fill: #fff;
      }
    </style>
  </defs>
  <path class="cls-2" d="M128.6,2c3.7.5,7.2,1.4,10.6,2.7,8,3.1,14.6,8.2,19.7,15.1,4.5,6.2,7.2,13.5,7.9,21,0,0,0,.1-.1.1h-1.5s0,0,0,0c-.3-2.2-.7-4.3-1.2-6.4-2-7.4-5.7-13.8-11.2-19.1-3.6-3.5-7.7-6.3-12.1-8.3-4.3-1.9-8.8-3.1-13.7-3.6-7.1-.7-13.9.3-20.4,3.1-4.3,1.8-8.3,4.4-11.8,7.6-3.3,3-6.2,6.5-8.6,10.5,0,0,0,0-.1,0l-1.3-.7c0,0,0-.1,0-.2h0c1.5-2.4,3.1-4.7,4.9-6.8,4.8-5.6,11-10,17.9-12.7,6.7-2.6,13.7-3.3,21.1-2.4Z"/>
  <circle class="cls-6" cx="131.5" cy="27.1" r="4"/>
  <path class="cls-2" d="M30.4,55.9c2.7-8,6.6-15.7,13-21.3,3-2.7,6.6-4.7,10.5-6.1,7.2-2.5,14.9-2.6,22.5-1.8,0,0,0,0,0,0h0c-.2.5-.4,1-.6,1.4,0,0,0,0-.1,0-.2,0-.4,0-.6,0-2.8-.1-5.3-.2-7.6-.3-3.6,0-7.1.4-10.6,1.3-5.7,1.5-10.6,4.4-14.6,8.6-2.9,3-5.2,6.7-7.1,10.5-1.2,2.5-2.3,5.2-3.2,8,0,0,0,0-.1,0h0l-1.4-.5c0,0,0,0,0-.1Z"/>
  <path class="cls-1" d="M91.4,29.7l33-3.3c0,0,0,0,0,0h0v1.6s0,0,0,0l-32.8,3.3c0,0,0,0,0,0l-.2-1.5c0,0,0,0,0-.1h0Z"/>
  <circle class="cls-5" cx="82.3" cy="30.5" r="4"/>
  <path class="cls-1" d="M138.5,28.4l22.4,14.2c0,0,0,0,0,.1h0l-.8,1.3c0,0,0,0-.1,0h0l-22.1-14s0,0,0-.1l.5-1.5c0,0,0,0,.1,0,0,0,0,0,0,0Z"/>
  <path class="cls-2" d="M88.9,32.7l17.3,9.7s0,0,0,.1l-.7,1.4c0,0,0,0-.1,0h0l-17.3-9.7s0,0,0-.1l.7-1.4c0,0,0,0,.1,0h0Z"/>
  <path class="cls-2" d="M132.5,34.1l5,39.9s0,0,0,0l-1.6.2s0,0,0,0h0l-5-40.1s0,0,0,0h1.6s0,0,0,0Z"/>
  <path class="cls-1" d="M64.5,44.2l12.4-9.1c0,0,.1,0,.1,0l.9,1.2c0,0,0,.1,0,.1l-12.4,9.1c0,0-.1,0-.1,0l-.9-1.2s0-.1,0-.1Z"/>
  <path class="cls-1" d="M128.6,79.2l-45.1-41.8s0,0,0-.1t0,0l1.4-.5c.2,0,.4,0,.6.1l44,40.8c0,0,0,.1,0,.2l-.9,1.2s-.1,0-.2,0c0,0,0,0,0,0Z"/>
  <circle class="cls-3" cx="111.2" cy="45.9" r="3"/>
  <circle class="cls-4" cx="166" cy="48" r="4"/>
  <circle class="cls-4" cx="58.5" cy="49.7" r="5.1"/>
  <path class="cls-1" d="M100.7,48c-.2,0-.5,0-.7,0-.5,0-.8.1-1.2-.2-.4-.3-.7-.7-1.1-1.2,0,0,0,0,0,0,0,0,0,0,0,0l7.3-.7c0,0,.1,0,.1,0l.2,1.5c0,0,0,.1-.1.1h0c-1.5.2-3.1.3-4.6.5Z"/>
  <path class="cls-2" d="M130.9,48.2h-14c0,0-.1,0,0-.1l.3-1.3c0-.2.2-.3.4-.3h13.2c0,.1,0,.1,0,.2l.2,1.5s0,0,0,0h0Z"/>
  <path class="cls-2" d="M135.5,46.6l23.5.2c0,0,0,0,0,0h0v1.5c-.1,0-.2.1-.2.1-7.6,0-15.1-.1-22.6-.2-.3,0-.6,0-.7-.4,0-.4-.1-.8-.1-1.2,0,0,0,0,.1,0Z"/>
  <path class="cls-1" d="M66.4,51.2v-1.5c.1,0,.2-.1.2-.1,6.9-.7,14.1-1.4,21.8-2.1.7,0,1.5-.2,2.3-.2.7,0,1.1.2,1.6.8.2.2.4.4.6.6,0,0,0,0,0,0h0s0,0-.1,0c-8.8.9-17.6,1.7-26.3,2.5,0,0,0,0,0,0t0,0Z"/>
  <path class="cls-2" d="M197.2,83.7c.5-6.5-1-13.1-4.5-18.6-2.1-3.3-4.7-6.1-7.9-8.5-3.6-2.7-7.8-4.7-12.2-6,0,0,0,0,0-.1l.4-1.5c0,0,0,0,0,0,6.2,1.9,12,5,16.6,9.6,6.3,6.3,9.8,15.3,9.3,24.2-.5,8.4-3.4,15.9-8.7,22.3-3.5,4.3-7.6,7.7-12.3,10.4,0,0-.1,0-.1,0,0,0,0,0,0,0l-.4-1.4c0,0,0-.2,0-.2,4.6-2.7,8.6-6.1,11.9-10.3,4.5-5.7,7.4-12.5,7.9-19.7Z"/>
  <path class="cls-1" d="M130.7,76.9l-17-25.5s0,0,0-.1h0l1.3-.8s0,0,.1,0l17,25.6s0,0,0,.1h0l-1.3.8s0,0-.1,0Z"/>
  <path class="cls-1" d="M140.7,76.9l19.7-24.6s.1,0,.1,0h0s1.1,1.1,1.1,1.1c0,0,0,0,0,.1l-19.8,24.6s-.1,0-.1,0h0s-1-1.1-1-1.1c0,0,0,0,0-.1Z"/>
  <path class="cls-1" d="M35.4,60.2l15.8-7c0,0,.1,0,.1,0l.8,1.3c0,0,0,.1,0,.1h0l-16.1,7.2c0,0-.1,0-.1,0h0s-.4-1.5-.4-1.5c0,0,0-.1,0-.1Z"/>
  <path class="cls-2" d="M138.8,108.5l24.4-54s0,0,0,0l1.5.4s0,0,0,0h0s-24.5,54.2-24.5,54.2c0,0,0,0-.1,0h0l-1.4-.6s0,0,0-.1h0Z"/>
  <path class="cls-1" d="M167.2,54.9l1.5-.5s0,0,.1,0h0s3.8,55.8,3.8,55.8c0,0,0,0,0,0h-1.6s0,0,0,0l-3.8-55.3s0,0,0,0Z"/>
  <path class="cls-1" d="M27,109l27-52.5s0,0,.1,0h0l1.4.7s0,0,0,.1l-27,52.5s0,0-.1,0l-1.4-.7c0,0,0,0,0-.1h0Z"/>
  <circle class="cls-5" cx="28.8" cy="62.9" r="4.1"/>
  <path class="cls-2" d="M1.7,86.9c.3-4.7,1.8-9.3,4.3-13.4,3.6-5.8,8.7-9.2,15.5-10.4.2,0,.3,0,.3.2l.2,1.3c0,0,0,.1-.1.1-6.2,1.1-11.3,4.4-14.5,9.8-.9,1.6-1.8,3.3-2.4,5.3-2,5.6-2.1,11.1-.4,16.7.5,1.6,1.2,3.3,2,4.9,2.5,5.1,6.9,8.8,12.2,11,0,0,0,.1,0,.2l-.6,1.4s0,0-.1,0h0c-5.3-2.2-9.9-5.9-12.7-11-1-1.8-1.8-3.7-2.4-5.8-1-3.5-1.4-6.9-1.2-10.4Z"/>
  <path class="cls-2" d="M26.6,69.5h1.6c0,.1,0,.1,0,.2l-2.6,38.8s0,0,0,0h-1.6c0-.1,0-.1,0-.2l2.6-38.8c0,0,0,0,0,0Z"/>
  <circle class="cls-5" cx="135.6" cy="83.4" r="5.1"/>
  <path class="cls-2" d="M144.9,91.7c-.1.2-.2.5-.3.7,0,0,0,0-.1,0,0,0,0,0,0,0l-3.4-3.1s0,0,0-.1h0l1-1.1c0,0,.1,0,.2,0,.9.8,1.8,1.6,2.8,2.5.4.4.1.8,0,1.1Z"/>
  <path class="cls-1" d="M136.6,108.3c-.4,0-.8,0-1.2,0,0,0-.1,0-.1-.1v-16.8s0,0,0,0h1.5c0,0,.1,0,.1,0h0c0,5.5,0,10.9,0,16.2,0,.2,0,.3,0,.5,0,0-.2.2-.3.2Z"/>
  <path class="cls-2" d="M148.3,95.4c.2-.4.4-.8.5-1.2,0,0,0,0,.1,0,0,0,0,0,0,0l19.3,17.1s0,.1,0,.1h0l-1,1.1c0,0-.1,0-.2,0-6.3-5.6-12.5-11.1-18.6-16.5-.2-.2-.2-.4-.1-.6Z"/>
  <circle class="cls-4" cx="24.6" cy="115.2" r="4.1"/>
  <circle class="cls-4" cx="136.7" cy="115.2" r="4"/>
  <circle class="cls-3" cx="171.9" cy="116.3" r="3"/>
  <path class="cls-2" d="M165.9,117.1l-22.3-1s0,0,0,0v-1.6s0,0,0,0h0l22.3.9s0,0,0,0v1.6c0,0,0,0,0,0h0Z"/>
  <g>
    <path class="cls-7" d="M62.7,87.8s0,0,0,0h-6.7s0,0,0,0l-1.4,4.7s0,0,0,0h-4.5c0,0,0,0,0,0v-1.2c0-.1,0-.2,0-.3l6.7-19.7c0,0,0,0,0,0h6.3s0,0,0,0c2.2,6.4,4.5,12.9,6.7,19.5,0,.2.1.5.1.7,0,.3,0,.6,0,1,0,0,0,0,0,0h-5.5c0,0,0,0-.1,0l-1.4-4.7ZM57.2,83.7s0,0,0,0h4.3s0,0,0,0h0s-2.1-7-2.1-7c0,0,0,0,0,0,0,0,0,0,0,0l-2.1,7Z"/>
    <path class="cls-7" d="M86.5,71.3c.5,0,1.1.2,1.3.8.1.4.2.8.2,1.2v19.3s0,0,0,0h-5.4s0,0,0,0v-21.2s0,0,0,0h0c1.3,0,2.7,0,4,0Z"/>
    <path class="cls-7" d="M71.8,76.4v-3.9c0,0,0,0,0,0h5.3s0,0,0,0h0v4s0,0,0,0h2.9s0,0,0,0h0v3.4s0,0,0,0h-2.9s0,0,0,0v7.1c0,.9.1,1.8,1.2,2,.6.1,1.2,0,1.8,0,0,0,.1,0,.1,0v3s0,0,0,0c-1.4.4-2.9.5-4.5.3-1.9-.2-3.5-1.1-3.9-3.1,0-.4-.1-.9-.1-1.5,0-2.7,0-5.4,0-8.1,0,0,0,0,0,0h-1.6c0,0,0,0-.1,0h0v-3.4s0,0,0,0h1.6c0,0,0,0,0,0Z"/>
    <path class="cls-7" d="M99.8,91.2s0,0,0,0t0,0c-1.4,1.5-3.6,1.9-5.6,1.6-1.8-.3-3.3-1.4-3.8-3.1-.3-1.1-.3-2.1,0-3.1,1-3.8,6-3.9,9.1-3.3,0,0,0,0,.1,0h0c0-.4,0-.8,0-1.2,0-1.2-.8-1.7-1.9-1.8-1.7-.2-3.1.2-4.4,1-.1,0-.3.1-.4.1-.4,0-.9,0-1.3,0,0,0,0,0,0,0v-3.6s0,0,0,0c3.1-1.2,6.2-1.6,9.4-1,.5,0,1.1.3,1.7.6,1.3.6,2.1,1.9,2.4,3.3,0,.5.1,1.1.1,1.7,0,3.5,0,7,0,10.4s0,0,0,0c-1.2,0-2.2,0-3.2,0-1,0-1.6-.5-1.9-1.4ZM96.8,89.6c1,.2,1.8-.2,2.6-.8,0,0,0,0,0-.2v-2.7c0,0,0,0,0,0-1.2-.2-3.7-.5-4,1.3-.2,1.1.2,2.2,1.4,2.4Z"/>
    <path class="cls-7" d="M115,88.1c0-.5-.1-.9-.6-1.1-.4-.2-.8-.3-1.2-.3-1.3-.2-2.4-.3-3.5-.8-2.1-.8-2.8-2.5-2.8-4.7,0-2.6,1.8-4.2,4.2-4.8,1.2-.3,2.8-.3,4.5-.2,1.2.1,2.3.4,3.4.9,0,0,0,0,0,0v3.4s0,0,0,0h-1.5c-.1,0-.2,0-.3,0-1.3-.8-2.8-1.1-4.4-.9-.6,0-1.2.5-1.1,1.1,0,.7.9.9,1.5,1,2.7.5,6.2.5,6.7,4.2.3,2.3-.2,4.4-2.3,5.6-.8.5-1.7.8-2.8.9-2.7.3-5.3,0-7.8-1.1,0,0,0,0,0-.1v-3.5s0,0,0,0h1.7c0,0,.1,0,.2,0,1.3,1.1,3.2,1.3,4.9,1,.5,0,1.1-.4,1.1-.9Z"/>
    <path class="cls-7" d="M62.1,97.1c1.6.8,3.4,1.3,5.2,1.4,0,0,0,0,0,0v21.7c0,.3-.2.5-.5.6-1.5.5-3.1,1-4.8,1.6,0,0,0,0,0,0h0v-25.2c0,0,0,0,.1,0Z"/>
    <path class="cls-7" d="M115.6,106.7s0,0,0,0h0v-6.8c0-.3.1-.4.4-.5l4.9-1.6s0,0,0,0h0v24c0,0,0,0,0,.1-2.4.5-4.7.8-7,1-1,0-2.2,0-3.4-.3-2.3-.5-3.9-1.9-4.4-4.3-.4-2-.4-4.1-.1-6.3.6-4.3,4-5.4,7.8-5.3.6,0,1.1.1,1.7.2ZM111.9,110.8c-.4.2-.6.5-.6.9,0,2.2,0,4.2,0,6,0,.4.2.8.6.9,1,.4,2.2.2,3.3,0,.3,0,.4-.2.4-.5v-6.8c0-.2,0-.5-.3-.6-1.1-.3-2.4-.4-3.4,0Z"/>
    <path class="cls-7" d="M51.7,118.3c.4.1.8.2,1.3.1,2.1-.2,4.2-.4,6.3-.9,0,0,0,0,0,0,0,1.2,0,2.5,0,3.8,0,.4,0,.8-.5.8-1.1.2-2.1.3-3,.4-2,.2-3.8.2-5.5-.1-2.5-.4-4.7-2.2-5.2-4.7,0-.5-.1-1.3-.1-2.6,0-2.8,0-5.5,0-8.2s0-1.9.2-2.5c.6-2.8,2.8-4.2,5.5-4.7,2.9-.5,5.7,0,8.6.5,0,0,0,0,0,0v4.4c0,0,0,.1-.1.1h0c-2-.4-4-.7-6.1-.8-1,0-2.1,0-2.5,1.1s-.2.8-.2,1.3c0,3.6,0,6.7,0,9.1,0,1.1,0,2.2,1.1,2.6Z"/>
    <path class="cls-7" d="M97.8,121.5s0,0-.1,0h0c-1.2.5-2.3.8-3.3,1.1-1.1.3-2.5.4-3.6,0-2.9-.9-2.8-4.8-2.8-7.2,0-2.7,0-5.5,0-8.3,0,0,0,0,0,0h5.2s0,0,0,0v9.7c0,1,.4,2,1.7,1.6.9-.3,1.8-.6,2.4-1,.2,0,.2-.2.2-.4,0-2.8,0-5.7,0-8.8,0-.3.2-.5.4-.6l4.8-1.7s0,0,0,0h0v16.5c0,0,0,0,0,0h-4.8c0,0,0,0,0,0l-.3-.9Z"/>
    <path class="cls-7" d="M79.3,122.8c-3.2.3-8.1-.2-9-4-.1-.5-.2-1.1-.1-2,0-1.4,0-2.8,0-4.1,0-1,0-1.7.2-2.2.6-2.2,2.8-3.3,4.9-3.7,3.5-.6,9.6-.2,10.1,4.5,0,.6,0,1.3,0,2,0,1.9,0,3.5,0,4.7,0,3.2-3.3,4.6-6,4.8ZM80.1,112.4c0-1.7-2.4-1.7-3.5-1.3-.6.2-1,.6-1,1.3v4.7c0,.6.3,1,.8,1.2.9.4,1.8.4,2.8,0,.6-.2.9-.7.9-1.3,0-1.5,0-3,0-4.6Z"/>
    <path class="cls-7" d="M108.8,127.4c1.6.3,3.2.6,4.7.6.2,0,.5,0,.5.3,0,1.8,0,3.5,0,5.3,0,0,0,.1-.1.1h-5.1s0,0,0,0v-6.3s0,0,0,0h0Z"/>
    <path class="cls-7" d="M59.2,147.7c-1,2.4-3.2,3.6-5.8,3.8-2.6.2-5.2-.1-7.8-.6-.2,0-.4,0-.5-.1,0,0,0,0,0,0v-4.4s0,0,0,0h0c1.6.4,3.3.6,4.9.7,1,0,2,0,3-.3,1.7-.5,1.6-2.4.3-3.3-1.3-.9-2.7-1.9-4.3-3.1-.7-.5-1.4-1-2-1.5-2.1-1.6-2.4-4.9-1.3-7.1,1.2-2.3,3.6-3.1,6-3.2,2.3-.1,4.6,0,6.8.7.3,0,.4.2.4.5v4c0,0,0,0,0,0h0c-1.2-.2-2.5-.4-3.8-.6-1-.2-2-.2-2.9,0-.8.1-1.9.6-1.6,1.7.2.5.8,1,1.2,1.4,1.9,1.5,3.9,2.9,5.9,4.3,1.4,1,2.1,2.4,2.1,4.2,0,1.2-.2,2.2-.5,3.1Z"/>
    <path class="cls-7" d="M135.8,145.1c-.2,1,.2,2,1.2,2.3.3.1,1,.1,1.8,0,1.7-.2,3.4-.4,5.1-.5,0,0,0,0,0,0v3.9s0,0,0,0c-1.8.3-3.5.6-5.1.7-2.8.2-6.9-.2-8-3.3-.2-.5-.3-1.3-.3-2.2,0-1.7,0-3.5,0-5.4,0-.8,0-1.5.3-2,.5-1.6,1.8-2.5,3.4-2.9,2-.6,4-.6,6-.2,1,.2,1.9.5,2.5.9,1.2.8,1.9,2,1.9,3.7,0,1.3,0,2.9,0,4.8,0,0,0,0,0,0h-8.7c0,0,0,0-.1,0ZM135.8,141.6h3.7c0,0,.1,0,.1-.1h0v-.8c0-.8-.7-1.4-1.6-1.4h-.7c-.9,0-1.6.6-1.6,1.4h0v.8c0,0,0,.1.1.1h0Z"/>
    <path class="cls-7" d="M67.1,145.1c0,1.1.3,2.2,1.4,2.4.3,0,.7,0,1.5,0,1.8-.2,3.5-.4,5.2-.5,0,0,0,0,0,0v3.5c0,.2-.2.3-.3.4-1.6.3-3.1.5-4.5.6-2.8.2-7.2,0-8.4-3.2-.2-.5-.3-1.2-.3-2.2,0-2.2,0-4.2,0-6.2,0-2.5,2.2-4,4.4-4.4,1.3-.2,2.7-.3,4.1-.2,2.4.2,4.7,1.1,5.4,3.5.2.6.2,1.5.2,2.6,0,1.2,0,2.3,0,3.4,0,0,0,.1-.1.1h-8.7s0,0,0,0ZM67.2,141.5h3.6c.1,0,.2,0,.2-.2h0v-.8c0-.8-.8-1.4-1.8-1.4h-.3c-1,0-1.9.6-1.9,1.4h0v.8c0,.1,0,.2.2.2h0Z"/>
    <path class="cls-7" d="M124.2,139.5c-.8,0-1.7.2-1.8,1.2,0,2.2,0,3.9,0,5.3,0,.7.3,1.1,1,1.2.8.2,1.6.2,2.4,0,.9-.2,1.8-.3,2.8-.6,0,0,0,0,0,0h0c0,.9,0,1.8,0,2.7,0,.3,0,.5,0,.7,0,.4,0,.8-.6.9-4.2.9-10.5,1.2-11-4.6-.2-1.6-.2-3.2,0-5,0-1.1.2-1.9.3-2.4.6-2.1,2.5-3.2,4.6-3.6,2.1-.4,4.4-.1,6.5.5.1,0,.2.2.2.3v3.8s0,0,0,0h0c-1.4-.2-2.6-.4-3.7-.6-.2,0-.4,0-.6,0Z"/>
    <path class="cls-7" d="M154.4,139.4c-.5-.1-2.1-.3-2.4.3-.3.7,1,1.6,1.5,1.9,1,.6,1.8,1.1,2.6,1.7,1.4,1,2.1,2.6,1.7,4.3-.7,3.6-4.4,4.3-7.4,3.9-1.2-.2-2.4-.4-3.5-.6,0,0,0,0,0-.1v-4c0,0,0,0,0,0,.9.2,1.7.4,2.6.6.8.2,1.6.2,2.3,0,.2,0,.4-.2.6-.4.4-.4.2-1-.2-1.4-1.1-.8-2.3-1.6-3.5-2.3-1.9-1.1-2.3-3.1-1.7-5.1.6-2.3,3.1-2.9,5.2-3,1.6,0,3.4.2,5.2.7,0,0,0,0,0,0v4s0,0,0,0h0c-1.1-.3-2.1-.5-2.9-.7Z"/>
    <path class="cls-7" d="M84.1,137.4s0,0,0,0c0,0,0,0,0,0,1.4-1.5,3.2-2.2,5.4-2,0,0,0,0,0,0v4.4c0,0,0,0,0,0-1.7,0-3.2.5-4.5,1.2-.8.4-.9.9-.9,1.8,0,2.8,0,5.5,0,8.2,0,0,0,0,0,0h-5.2s0,0,0,0v-15.2c0,0,0,0,0-.1s0-.1,0-.1h4.8s0,0,0,0l.3,1.6Z"/>
    <path class="cls-7" d="M98.8,144.9c.2-1.8.7-3.5,1.4-5.3.5-1.3,1.1-2.6,1.6-3.9,0,0,0,0,.1,0h5.1s0,0,0,0h0s-5.7,15.1-5.7,15.1c0,.2-.3.4-.5.4h-4.9s0,0,0,0l-5.4-15.4c0,0,0,0,0,0h5.5s0,0,0,0c.4,1.2.9,2.4,1.3,3.7.6,1.8,1.1,3.6,1.2,5.5,0,0,0,0,0,.1h0s0,0,0,0Z"/>
    <path class="cls-7" d="M108.8,135.7h5.2s0,0,0,0v15.4s0,0,0,0h-5.2s0,0,0,0v-15.4s0,0,0,0Z"/>
  </g>
</svg>